<svg width="1200" height="800" viewBox="0 0 1200 800" fill="none" xmlns="http://www.w3.org/2000/svg">
  <rect width="1200" height="800" fill="#0E1218"/>
  <rect x="0" y="0" width="1200" height="82" fill="#121821"/>
  <text x="24" y="42" fill="#E9EEF5" font-family="Segoe UI, Arial, sans-serif" font-size="28" font-weight="700">MiniDB Studio</text>
  <text x="24" y="64" fill="#9AA9BD" font-family="Segoe UI, Arial, sans-serif" font-size="15">SQL editor | result grid | index explorer | performance dashboard</text>
  <rect x="865" y="22" width="308" height="34" rx="10" fill="#172637" stroke="#5F95FF"/>
  <text x="881" y="44" fill="#90B7FF" font-family="Segoe UI, Arial, sans-serif" font-size="13">Query executed. B+Tree(age) selected for range scan.</text>

  <rect x="18" y="98" width="336" height="322" rx="18" fill="#181F29" stroke="#364150"/>
  <text x="36" y="126" fill="#E9EEF5" font-family="Segoe UI, Arial, sans-serif" font-size="20" font-weight="700">SQL Workspace</text>
  <text x="36" y="148" fill="#9AA9BD" font-family="Segoe UI, Arial, sans-serif" font-size="13">Multi-line editing, formatting, snippets, and Ctrl+Enter execution.</text>
  <rect x="34" y="170" width="198" height="206" rx="12" fill="#121821" stroke="#5F95FF"/>
  <rect x="34" y="170" width="30" height="206" rx="12" fill="#17202B"/>
  <g font-family="Consolas, monospace" font-size="14">
    <text x="42" y="194" fill="#6F7F95">1</text>
    <text x="42" y="218" fill="#6F7F95">2</text>
    <text x="76" y="194" fill="#7DB4FF">SELECT</text>
    <text x="136" y="194" fill="#E9EEF5">*</text>
    <text x="76" y="218" fill="#7DB4FF">WHERE</text>
    <text x="132" y="218" fill="#E9EEF5">age</text>
    <text x="172" y="218" fill="#F1C66C">&gt;</text>
    <text x="188" y="218" fill="#98DA83">30</text>
    <text x="76" y="242" fill="#7DB4FF">ORDER</text>
    <text x="126" y="242" fill="#7DB4FF">BY</text>
    <text x="150" y="242" fill="#E9EEF5">age</text>
    <text x="76" y="266" fill="#7DB4FF">LIMIT</text>
    <text x="126" y="266" fill="#98DA83">10</text>
  </g>
  <rect x="244" y="170" width="92" height="156" rx="12" fill="#151C25" stroke="#364150"/>
  <text x="258" y="190" fill="#E9EEF5" font-family="Segoe UI, Arial, sans-serif" font-size="14" font-weight="700">Snippets</text>
  <rect x="252" y="204" width="76" height="18" rx="7" fill="#1F2A3A"/>
  <rect x="252" y="226" width="76" height="18" rx="7" fill="#121821" stroke="#364150"/>
  <rect x="252" y="248" width="76" height="18" rx="7" fill="#121821" stroke="#364150"/>
  <rect x="252" y="270" width="76" height="18" rx="7" fill="#121821" stroke="#364150"/>
  <text x="264" y="217" fill="#E9EEF5" font-family="Segoe UI, Arial, sans-serif" font-size="11">SELECT *</text>
  <text x="260" y="239" fill="#9AA9BD" font-family="Segoe UI, Arial, sans-serif" font-size="11">Age &gt; 30</text>
  <text x="257" y="261" fill="#9AA9BD" font-family="Segoe UI, Arial, sans-serif" font-size="11">Order By Age</text>
  <text x="255" y="283" fill="#9AA9BD" font-family="Segoe UI, Arial, sans-serif" font-size="11">Saved Query</text>
  <text x="258" y="308" fill="#9AA9BD" font-family="Segoe UI, Arial, sans-serif" font-size="13">History</text>
  <rect x="252" y="318" width="76" height="12" rx="5" fill="#121821" stroke="#364150"/>
  <rect x="252" y="336" width="76" height="12" rx="5" fill="#121821" stroke="#364150"/>
  <text x="34" y="398" fill="#9AA9BD" font-family="Segoe UI, Arial, sans-serif" font-size="13">Execute</text>
  <text x="134" y="398" fill="#9AA9BD" font-family="Segoe UI, Arial, sans-serif" font-size="13">Format</text>
  <text x="232" y="398" fill="#9AA9BD" font-family="Segoe UI, Arial, sans-serif" font-size="13">Clear</text>

  <rect x="18" y="436" width="336" height="134" rx="18" fill="#181F29" stroke="#364150"/>
  <text x="36" y="464" fill="#E9EEF5" font-family="Segoe UI, Arial, sans-serif" font-size="20" font-weight="700">Storage Browser</text>
  <text x="36" y="486" fill="#9AA9BD" font-family="Segoe UI, Arial, sans-serif" font-size="12">Snapshot + WAL telemetry for the active session.</text>
  <rect x="238" y="454" width="44" height="20" rx="8" fill="#121821" stroke="#364150"/>
  <rect x="290" y="454" width="44" height="20" rx="8" fill="#121821" stroke="#364150"/>
  <rect x="230" y="478" width="104" height="20" rx="8" fill="#121821" stroke="#364150"/>
  <text x="247" y="468" fill="#9AA9BD" font-family="Segoe UI, Arial, sans-serif" font-size="11">Save</text>
  <text x="300" y="468" fill="#9AA9BD" font-family="Segoe UI, Arial, sans-serif" font-size="11">Load</text>
  <text x="241" y="492" fill="#9AA9BD" font-family="Segoe UI, Arial, sans-serif" font-size="11">Bench 50k</text>
  <text x="36" y="516" fill="#E9EEF5" font-family="Consolas, monospace" font-size="13">data/db.csv</text>
  <text x="36" y="538" fill="#9AA9BD" font-family="Segoe UI, Arial, sans-serif" font-size="12">WAL 83 KB   |   Records 12450</text>
  <text x="36" y="558" fill="#9AA9BD" font-family="Segoe UI, Arial, sans-serif" font-size="12">Saved 2026-04-08 10:22:04</text>
  <rect x="248" y="546" width="86" height="18" rx="9" fill="#183126"/>
  <text x="273" y="558" fill="#7FD69C" font-family="Segoe UI, Arial, sans-serif" font-size="11">Healthy</text>

  <rect x="370" y="98" width="492" height="472" rx="18" fill="#181F29" stroke="#364150"/>
  <text x="388" y="126" fill="#E9EEF5" font-family="Segoe UI, Arial, sans-serif" font-size="20" font-weight="700">Result Grid</text>
  <text x="388" y="148" fill="#9AA9BD" font-family="Segoe UI, Arial, sans-serif" font-size="13">Sortable result grid with sticky headers, pagination, selection, and CSV export.</text>
  <rect x="384" y="172" width="462" height="34" rx="10" fill="#121821"/>
  <g font-family="Segoe UI, Arial, sans-serif" font-size="14" fill="#9AA9BD">
    <text x="398" y="194">ID ^</text>
    <text x="468" y="194">Name</text>
    <text x="642" y="194">Age</text>
    <text x="716" y="194">Department</text>
  </g>
  <g font-family="Consolas, monospace" font-size="14">
    <rect x="384" y="208" width="462" height="32" fill="#1E2734"/>
    <rect x="384" y="240" width="462" height="32" fill="#181F29"/>
    <rect x="384" y="272" width="462" height="32" fill="#1D2530"/>
    <rect x="384" y="304" width="462" height="32" fill="#181F29"/>
    <rect x="384" y="336" width="462" height="32" fill="#1D2530"/>
    <text x="398" y="229" fill="#E9EEF5">1</text>
    <text x="468" y="229" fill="#E9EEF5">Alice</text>
    <text x="642" y="229" fill="#E9EEF5">31</text>
    <text x="716" y="229" fill="#E9EEF5">Neurology</text>
    <text x="398" y="261" fill="#E9EEF5">3</text>
    <text x="468" y="261" fill="#E9EEF5">Carol</text>
    <text x="642" y="261" fill="#E9EEF5">35</text>
    <text x="716" y="261" fill="#E9EEF5">Oncology</text>
    <text x="398" y="293" fill="#E9EEF5">7</text>
    <text x="468" y="293" fill="#E9EEF5">Nadia</text>
    <text x="642" y="293" fill="#E9EEF5">37</text>
    <text x="716" y="293" fill="#E9EEF5">Radiology</text>
    <text x="398" y="325" fill="#E9EEF5">9</text>
    <text x="468" y="325" fill="#E9EEF5">Marco</text>
    <text x="642" y="325" fill="#E9EEF5">44</text>
    <text x="716" y="325" fill="#E9EEF5">Cardiology</text>
  </g>
  <text x="388" y="544" fill="#9AA9BD" font-family="Segoe UI, Arial, sans-serif" font-size="13">Page 1/3   Showing 1-10 of 24</text>
  <text x="598" y="544" fill="#E9EEF5" font-family="Segoe UI, Arial, sans-serif" font-size="13">Selected Row: id=3</text>
  <rect x="710" y="530" width="54" height="24" rx="8" fill="#121821" stroke="#364150"/>
  <rect x="772" y="530" width="54" height="24" rx="8" fill="#121821" stroke="#364150"/>
  <rect x="834" y="530" width="12" height="24" rx="8" fill="#1E2734"/>
  <text x="724" y="546" fill="#9AA9BD" font-family="Segoe UI, Arial, sans-serif" font-size="11">Prev</text>
  <text x="786" y="546" fill="#9AA9BD" font-family="Segoe UI, Arial, sans-serif" font-size="11">Next</text>

  <rect x="878" y="98" width="304" height="246" rx="18" fill="#181F29" stroke="#364150"/>
  <text x="896" y="126" fill="#E9EEF5" font-family="Segoe UI, Arial, sans-serif" font-size="20" font-weight="700">Execution Plan</text>
  <text x="896" y="148" fill="#9AA9BD" font-family="Segoe UI, Arial, sans-serif" font-size="13">Planner decisions and runtime telemetry.</text>
  <text x="896" y="182" fill="#7E8CA2" font-family="Segoe UI, Arial, sans-serif" font-size="12">Active Plan</text>
  <text x="896" y="204" fill="#E9EEF5" font-family="Segoe UI, Arial, sans-serif" font-size="17">B+ Tree Range Scan (age)</text>
  <rect x="1034" y="180" width="132" height="22" rx="10" fill="#1F3350"/>
  <text x="1052" y="195" fill="#91B9FF" font-family="Segoe UI, Arial, sans-serif" font-size="11">BPTREE_AGE_RANGE</text>
  <rect x="896" y="220" width="128" height="42" rx="12" fill="#151C25" stroke="#364150"/>
  <rect x="1038" y="220" width="128" height="42" rx="12" fill="#151C25" stroke="#364150"/>
  <rect x="896" y="270" width="128" height="42" rx="12" fill="#151C25" stroke="#364150"/>
  <rect x="1038" y="270" width="128" height="42" rx="12" fill="#151C25" stroke="#364150"/>
  <text x="912" y="238" fill="#7E8CA2" font-family="Segoe UI, Arial, sans-serif" font-size="11">Index Used</text>
  <text x="912" y="254" fill="#E9EEF5" font-family="Segoe UI, Arial, sans-serif" font-size="15">B+Tree(age)</text>
  <text x="1054" y="238" fill="#7E8CA2" font-family="Segoe UI, Arial, sans-serif" font-size="11">Latency</text>
  <text x="1054" y="254" fill="#E9EEF5" font-family="Segoe UI, Arial, sans-serif" font-size="15">1.208 ms</text>
  <text x="912" y="288" fill="#7E8CA2" font-family="Segoe UI, Arial, sans-serif" font-size="11">Rows Scanned</text>
  <text x="912" y="304" fill="#E9EEF5" font-family="Segoe UI, Arial, sans-serif" font-size="15">42</text>
  <text x="1054" y="288" fill="#7E8CA2" font-family="Segoe UI, Arial, sans-serif" font-size="11">Memory</text>
  <text x="1054" y="304" fill="#E9EEF5" font-family="Segoe UI, Arial, sans-serif" font-size="15">2.31 MB</text>
  <text x="896" y="328" fill="#9AA9BD" font-family="Segoe UI, Arial, sans-serif" font-size="12">Rows matched: 10</text>

  <rect x="878" y="360" width="304" height="210" rx="18" fill="#181F29" stroke="#364150"/>
  <text x="896" y="388" fill="#E9EEF5" font-family="Segoe UI, Arial, sans-serif" font-size="20" font-weight="700">Index Explorer</text>
  <text x="896" y="410" fill="#9AA9BD" font-family="Segoe UI, Arial, sans-serif" font-size="13">Hash and B+Tree internals update after each query.</text>
  <rect x="896" y="430" width="128" height="54" rx="12" fill="#151C25" stroke="#364150"/>
  <rect x="1038" y="430" width="128" height="54" rx="12" fill="#151C25" stroke="#4B79D6"/>
  <text x="912" y="450" fill="#7E8CA2" font-family="Segoe UI, Arial, sans-serif" font-size="11">Hash(id)</text>
  <text x="912" y="470" fill="#E9EEF5" font-family="Segoe UI, Arial, sans-serif" font-size="14">12450 entries</text>
  <text x="1054" y="450" fill="#7E8CA2" font-family="Segoe UI, Arial, sans-serif" font-size="11">B+Tree(age)</text>
  <text x="1054" y="470" fill="#E9EEF5" font-family="Segoe UI, Arial, sans-serif" font-size="14">214 nodes | depth 4</text>
  <text x="896" y="508" fill="#9AA9BD" font-family="Segoe UI, Arial, sans-serif" font-size="12">Hash(department): 8 keys / 12450 rows</text>
  <text x="896" y="526" fill="#9AA9BD" font-family="Segoe UI, Arial, sans-serif" font-size="12">B+Tree(id): 190 nodes / depth 4</text>
  <text x="896" y="546" fill="#7E8CA2" font-family="Segoe UI, Arial, sans-serif" font-size="12">Age leaf chain: 41 leaves</text>
  <rect x="896" y="554" width="16" height="10" rx="5" fill="#243652"/>
  <rect x="920" y="554" width="16" height="10" rx="5" fill="#243652"/>
  <rect x="944" y="554" width="16" height="10" rx="5" fill="#243652"/>
  <rect x="968" y="554" width="16" height="10" rx="5" fill="#243652"/>
  <text x="896" y="588" fill="#9AA9BD" font-family="Segoe UI, Arial, sans-serif" font-size="12">root -&gt; internal nodes -&gt; first matching leaf -&gt; leaf chain</text>

  <rect x="18" y="586" width="1164" height="158" rx="18" fill="#181F29" stroke="#364150"/>
  <text x="36" y="612" fill="#E9EEF5" font-family="Segoe UI, Arial, sans-serif" font-size="18" font-weight="700">Performance Dashboard</text>
  <g>
    <rect x="32" y="628" width="214" height="98" rx="14" fill="#151C25" stroke="#364150"/>
    <rect x="260" y="628" width="214" height="98" rx="14" fill="#151C25" stroke="#364150"/>
    <rect x="488" y="628" width="214" height="98" rx="14" fill="#151C25" stroke="#364150"/>
    <rect x="716" y="628" width="214" height="98" rx="14" fill="#151C25" stroke="#364150"/>
    <rect x="944" y="628" width="224" height="98" rx="14" fill="#151C25" stroke="#364150"/>
  </g>
  <text x="48" y="650" fill="#9AA9BD" font-family="Segoe UI, Arial, sans-serif" font-size="13">Latency Trend</text>
  <text x="276" y="650" fill="#9AA9BD" font-family="Segoe UI, Arial, sans-serif" font-size="13">Rows Scanned</text>
  <text x="504" y="650" fill="#9AA9BD" font-family="Segoe UI, Arial, sans-serif" font-size="13">Memory Usage</text>
  <text x="732" y="650" fill="#9AA9BD" font-family="Segoe UI, Arial, sans-serif" font-size="13">Cache Hit Ratio</text>
  <text x="960" y="650" fill="#9AA9BD" font-family="Segoe UI, Arial, sans-serif" font-size="13">Index Usage Frequency</text>
  <polyline points="50,708 84,694 118,700 152,676 186,682 220,664" fill="none" stroke="#7EB4FF" stroke-width="3"/>
  <polyline points="278,704 312,694 346,682 380,674 414,658 448,646" fill="none" stroke="#F1C66C" stroke-width="3"/>
  <polyline points="506,708 540,700 574,692 608,690 642,676 676,670" fill="none" stroke="#7FD69C" stroke-width="3"/>
  <polyline points="734,704 768,696 802,684 836,688 870,674 904,662" fill="none" stroke="#9FE67C" stroke-width="3"/>
  <rect x="980" y="672" width="116" height="12" rx="6" fill="#243652"/>
  <rect x="980" y="692" width="72" height="12" rx="6" fill="#2E4468"/>
  <rect x="980" y="712" width="48" height="12" rx="6" fill="#1D2A3A"/>

  <rect x="0" y="752" width="1200" height="48" fill="#121821"/>
  <text x="18" y="781" fill="#E9EEF5" font-family="Segoe UI, Arial, sans-serif" font-size="14">Records: 12450</text>
  <text x="154" y="781" fill="#9AA9BD" font-family="Segoe UI, Arial, sans-serif" font-size="14">Indexes: Hash(id), Hash(department), B+Tree(id), B+Tree(age)</text>
  <text x="644" y="781" fill="#9AA9BD" font-family="Segoe UI, Arial, sans-serif" font-size="14">Storage: CSV + WAL</text>
  <text x="838" y="781" fill="#E9EEF5" font-family="Segoe UI, Arial, sans-serif" font-size="14">Session Queries: 19</text>
  <text x="1034" y="781" fill="#E9EEF5" font-family="Segoe UI, Arial, sans-serif" font-size="14">Memory: 2.31 MB</text>
</svg>
